<?xml version="1.0" encoding="utf-8"?>
<!-- Generator: Adobe Illustrator 25.0.0, SVG Export Plug-In . SVG Version: 6.00 Build 0)  -->
<svg version="1.1" id="Layer_1" xmlns="http://www.w3.org/2000/svg" xmlns:xlink="http://www.w3.org/1999/xlink" x="0px" y="0px"
	 viewBox="0 0 561.7 138.5" style="enable-background:new 0 0 561.7 138.5;" xml:space="preserve">
<style type="text/css">
	.st0{fill:#029CA0;}
	.st1{fill:#003E4F;}
	.st2{fill:#FF5100;}
</style>
<path class="st0" d="M144.2,95.1h2v-1.5c0-2,0.6-3.9,3.7-3.9c0.5,0,1.1,0.1,1.4,0.2l-0.2,1.7c-0.2-0.1-0.6-0.3-1.2-0.2
	c-1.3,0-1.9,0.4-1.9,2.3v1.3h2.9v1.5h-2.9v8.5h-1.8v-8.5h-2V95.1z"/>
<path class="st0" d="M152.5,100.1c0-3.5,1.8-5.2,4.7-5.2s4.7,1.7,4.7,5.2c0,3.5-1.8,5.2-4.7,5.2S152.5,103.6,152.5,100.1
	 M160.2,100.1c0-2.6-1.2-3.6-2.9-3.6c-1.7,0-2.9,1.1-2.9,3.6c0,2.6,1.2,3.6,2.9,3.6C159,103.7,160.2,102.7,160.2,100.1"/>
<path class="st0" d="M166.3,99v6.2h-1.8v-7.6l-0.1-2.5h1.6l0.2,1.5c0.6-1,1.8-1.8,3.1-1.8c0.5,0,1,0.1,1.3,0.2l-0.2,1.8
	c-0.2-0.1-0.6-0.2-1.1-0.2C167.7,96.6,166.5,97.8,166.3,99"/>
<path class="st0" d="M176.6,95.1h1.8v-2.7l1.8-0.3v3h3.1v1.5h-3.1v4.7c0,1.9,0.6,2.3,1.9,2.3c0.5,0,0.9-0.1,1.2-0.2l0.2,1.7
	c-0.3,0.1-0.8,0.2-1.4,0.2c-3.1,0-3.7-1.9-3.7-3.9v-4.9h-1.8V95.1z"/>
<path class="st0" d="M187.6,96.5c0.7-1,1.8-1.6,3.2-1.6c2.2,0,3.9,1.2,3.9,3.4v6.9h-1.8v-6.5c0-1.3-0.9-2-2.3-2
	c-1.6,0-2.8,1.3-2.9,2.4v6.2h-1.8V90h1.8V96.5z"/>
<path class="st0" d="M198.8,100.8c0.1,2,1.3,2.9,2.9,2.9c1.6,0,2.3-0.6,2.5-1.6l1.9,0.2c-0.2,1.6-1.5,3-4.4,3c-3,0-4.8-1.8-4.8-5.2
	c0-3.5,1.8-5.2,4.8-5.2c3,0,4.5,1.9,4.5,5.2v0.8H198.8z M198.8,99.3h5.4c0-1.9-0.9-2.9-2.5-2.9C200.1,96.4,199,97.3,198.8,99.3"/>
<polygon class="st0" points="218.4,104.5 216.6,108.9 214.5,108.9 216.4,104.6 212.3,95.1 214.3,95.1 216.4,100.3 217.4,102.8 
	218.3,100.3 220.4,95.1 222.4,95.1 "/>
<path class="st0" d="M223.6,100.1c0-3.5,1.8-5.2,4.7-5.2s4.7,1.7,4.7,5.2c0,3.5-1.8,5.2-4.7,5.2S223.6,103.6,223.6,100.1
	 M231.3,100.1c0-2.6-1.2-3.6-2.9-3.6c-1.7,0-2.9,1.1-2.9,3.6c0,2.6,1.2,3.6,2.9,3.6C230.1,103.7,231.3,102.7,231.3,100.1"/>
<path class="st0" d="M242.6,103.7c-0.7,1-1.9,1.6-3.2,1.6c-2.2,0-3.9-1.2-3.9-3.4v-6.9h1.8v6.5c0,1.3,0.9,2,2.3,2
	c1.6,0,2.8-1.3,2.9-2.4v-6.2h1.8v7.6l0.1,2.5h-1.6L242.6,103.7z"/>
<path class="st0" d="M248.9,96.5c0.7-1,1.9-1.6,3.2-1.6c2.2,0,3.9,1.2,3.9,3.4v6.9h-1.8v-6.5c0-1.3-0.9-2-2.3-2
	c-1.6,0-2.8,1.3-2.9,2.4v6.2h-1.8v-7.6l-0.1-2.5h1.6L248.9,96.5z"/>
<path class="st0" d="M267.9,105.4c0,2.5-1.9,3.8-4.8,3.8c-3.3,0-4.4-1.2-4.6-3l1.9-0.3c0.2,1.1,0.8,1.7,2.6,1.7c1.7,0,3-0.6,3-2.1
	v-2.1c-0.6,0.9-1.8,1.6-3.2,1.6c-2.8,0-4.5-1.7-4.5-5c0-3.3,1.7-5,4.5-5c1.5,0,2.6,0.7,3.3,1.7l0.2-1.4h1.6l-0.1,2.5V105.4z
	 M266.1,98.9c-0.2-1.1-1.3-2.4-3-2.4c-1.7,0-2.8,1-2.8,3.3c0,2.3,1.1,3.3,2.8,3.3c1.7,0,2.8-1.3,3-2.4V98.9z"/>
<path class="st0" d="M277.1,100.8c0.1,2,1.2,2.9,2.9,2.9c1.6,0,2.3-0.6,2.5-1.6l1.9,0.2c-0.2,1.6-1.5,3-4.4,3c-3,0-4.8-1.8-4.8-5.2
	c0-3.5,1.8-5.2,4.8-5.2c3,0,4.5,1.9,4.5,5.2v0.8H277.1z M277.2,99.3h5.4c0-1.9-0.9-2.9-2.5-2.9C278.4,96.4,277.3,97.3,277.2,99.3"/>
<path class="st0" d="M288.9,96.5c0.7-1,1.9-1.6,3.2-1.6c2.2,0,3.9,1.2,3.9,3.4v6.9h-1.8v-6.5c0-1.3-0.9-2-2.3-2
	c-1.6,0-2.8,1.3-2.9,2.4v6.2h-1.8v-7.6l-0.1-2.5h1.6L288.9,96.5z"/>
<path class="st0" d="M297.9,95.1h1.8v-2.7l1.8-0.3v3h3.1v1.5h-3.1v4.7c0,1.9,0.6,2.3,1.9,2.3c0.5,0,0.9-0.1,1.2-0.2l0.2,1.7
	c-0.3,0.1-0.8,0.2-1.4,0.2c-3.1,0-3.7-1.9-3.7-3.9v-4.9h-1.8V95.1z"/>
<path class="st0" d="M308.9,99v6.2h-1.8v-7.6l-0.1-2.5h1.6l0.2,1.5c0.6-1,1.8-1.8,3.1-1.8c0.5,0,1,0.1,1.3,0.2l-0.2,1.8
	c-0.2-0.1-0.6-0.2-1.1-0.2C310.3,96.6,309.1,97.8,308.9,99"/>
<path class="st0" d="M316.5,100.8c0.1,2,1.2,2.9,2.9,2.9c1.6,0,2.3-0.6,2.5-1.6l1.9,0.2c-0.2,1.6-1.5,3-4.4,3c-3,0-4.8-1.8-4.8-5.2
	c0-3.5,1.8-5.2,4.8-5.2c3,0,4.5,1.9,4.5,5.2v0.8H316.5z M316.6,99.3h5.4c0-1.9-0.9-2.9-2.5-2.9C317.8,96.4,316.7,97.3,316.6,99.3"/>
<path class="st0" d="M328.3,103.8v5.1h-1.8V97.6l-0.1-2.5h1.6l0.2,1.4c0.6-1,1.9-1.7,3.2-1.7c2.9,0,4.5,1.9,4.5,5.2
	c0,3.3-1.6,5.2-4.5,5.2C330.2,105.4,329,104.8,328.3,103.8 M328.3,101.3c0.2,1.1,1.3,2.4,3,2.4c1.7,0,2.8-1.2,2.8-3.6
	c0-2.3-1.1-3.6-2.8-3.6c-1.7,0-2.9,1.3-3,2.4V101.3z"/>
<path class="st0" d="M340.4,99v6.2h-1.8v-7.6l-0.1-2.5h1.6l0.2,1.5c0.6-1,1.8-1.8,3.1-1.8c0.5,0,1,0.1,1.3,0.2l-0.2,1.8
	c-0.2-0.1-0.6-0.2-1.1-0.2C341.8,96.6,340.5,97.8,340.4,99"/>
<path class="st0" d="M348,100.8c0.1,2,1.2,2.9,2.9,2.9c1.6,0,2.3-0.6,2.5-1.6l1.9,0.2c-0.2,1.6-1.5,3-4.4,3c-3,0-4.8-1.8-4.8-5.2
	c0-3.5,1.8-5.2,4.8-5.2c3,0,4.5,1.9,4.5,5.2v0.8H348z M348,99.3h5.4c0-1.9-0.9-2.9-2.5-2.9C349.3,96.4,348.1,97.3,348,99.3"/>
<path class="st0" d="M359.7,96.5c0.7-1,1.9-1.6,3.2-1.6c2.2,0,3.9,1.2,3.9,3.4v6.9H365v-6.5c0-1.3-0.9-2-2.3-2
	c-1.6,0-2.8,1.3-2.9,2.4v6.2H358v-7.6l-0.1-2.5h1.6L359.7,96.5z"/>
<path class="st0" d="M371,100.8c0.1,2,1.2,2.9,2.9,2.9c1.6,0,2.3-0.6,2.5-1.6l1.9,0.2c-0.2,1.6-1.5,3-4.4,3c-3,0-4.8-1.8-4.8-5.2
	c0-3.5,1.8-5.2,4.8-5.2c3,0,4.5,1.9,4.5,5.2v0.8H371z M371.1,99.3h5.4c0-1.9-0.9-2.9-2.5-2.9C372.3,96.4,371.2,97.3,371.1,99.3"/>
<path class="st0" d="M388,103.7c-0.7,1-1.9,1.6-3.2,1.6c-2.2,0-3.9-1.2-3.9-3.4v-6.9h1.8v6.5c0,1.3,0.9,2,2.3,2
	c1.6,0,2.8-1.3,2.9-2.4v-6.2h1.8v7.6l0.1,2.5h-1.6L388,103.7z"/>
<path class="st0" d="M394.4,99v6.2h-1.8v-7.6l-0.1-2.5h1.6l0.2,1.5c0.6-1,1.8-1.8,3.1-1.8c0.5,0,1,0.1,1.3,0.2l-0.2,1.8
	c-0.2-0.1-0.6-0.2-1.1-0.2C395.8,96.6,394.6,97.8,394.4,99"/>
<path class="st1" d="M557.7,13.7C546.2,9,535,5.3,522.5,4.3c2.5,3.6,4.7,7.1,6.8,10.7c-40.3,21.4-90,45.4-93.1,113.6
	c-0.1,1.9,0.2,3.8,0.3,5.7c6.2-62.8,54.5-78.8,101.3-100.4c1.4,4,2.6,8.1,3.7,12.5C548.9,36.2,553.5,25.4,557.7,13.7"/>
<path class="st0" d="M514.2,60.6c-2.5-0.8-5.2-1.4-7.9-2c6.7-5.4,14-8.8,22-11.9c3.5,7.8,6.3,15.4,7.4,23.9c-2.5-1.6-4.9-3-7.4-4.3
	c-2.2,5-5,9.7-8.2,13.9c-2.5-4.8-5.3-9.5-8.5-13.9C512.5,64.4,513.3,62.5,514.2,60.6 M447.2,104.5c-0.1,0.3-0.3,0.7-0.4,1
	c22.4,7.1,46.4,0.6,63.6-14.9c-2.4-3.5-5-6.8-7.9-9.8C488.7,98.6,469,107.9,447.2,104.5"/>
<path class="st2" d="M441.8,63.4c0.1-4.4,0.4-8.6,0.9-12.7c7.4,0.6,14.6,1.9,21.4,3.8c0.3-0.3,0.5-0.6,0.8-0.8
	c4.6-4.6,9.5-8.8,14.7-12.7c-9.9-5.9-20.8-10-32.2-11.7c1.1-3.6,2.5-7.2,4-10.9c-11.9,3.7-22,9.7-32.3,16.7
	C425.6,45.6,432.4,55.2,441.8,63.4"/>
<path class="st2" d="M498.4,55.7c-4.6,2.4-9,4.9-13.3,7.6c24.3,14,40.8,38.6,43.2,70.9c0.1-1.9,0.2-3.9,0.2-5.9
	C528.5,100,516.7,74.1,498.4,55.7"/>
<path class="st1" d="M44.8,77.7c-0.3-1-0.4-2.3-0.4-3.7V59.9c0-2-0.4-3.9-1.2-5.4c-0.8-1.6-1.9-2.9-3.3-4c-1.4-1.1-2.9-1.9-4.7-2.4
	c-1.7-0.5-3.6-0.8-5.5-0.8c-2.5,0-4.9,0.3-7,0.9c-2.1,0.6-4.2,1.5-6.4,2.7c-0.2,0.1-0.3,0.3-0.4,0.5c-0.1,0.2,0,0.4,0.1,0.6l3.1,5.3
	c0.1,0.2,0.4,0.4,0.7,0.4c0.1,0,0.2,0,0.4-0.1c1.6-0.8,3.1-1.5,4.6-1.9c1.4-0.4,3.1-0.6,5-0.6c2,0,3.5,0.5,4.5,1.4
	c1,0.9,1.5,2.4,1.5,4.5H25.1c-1.6,0-3.2,0.3-4.7,0.8C19,62.2,17.7,63,16.6,64c-1.1,1-2,2.2-2.6,3.6c-0.6,1.4-0.9,3-0.9,4.7
	c0,1.6,0.3,3.1,1,4.5c0.7,1.3,1.6,2.5,2.7,3.4c1.1,0.9,2.4,1.7,3.9,2.2c1.4,0.5,3,0.8,4.5,0.8c2.3,0,4.5-0.5,6.5-1.4
	c1.5-0.7,3.1-1.6,4.6-2.6c0.1,0.3,0.1,0.5,0.2,0.8c0.2,0.8,0.5,1.6,0.9,2.1c0.2,0.2,0.4,0.3,0.7,0.3h7.5c0.3,0,0.5-0.1,0.7-0.4
	c0.2-0.2,0.2-0.5,0-0.8C45.5,79.9,45,78.7,44.8,77.7 M25.9,75.2c-1.3,0-2.4-0.2-3.2-0.6c-0.2-0.1-1-0.5-1-2.3c0-1.2,0.3-2,0.8-2.6
	c0.5-0.6,1.4-0.9,2.6-0.9h10.6v2.1c-0.6,0.3-1.3,0.7-2,1.2c-0.8,0.5-1.8,1-2.7,1.5c-0.9,0.4-1.8,0.8-2.8,1.2
	C27.4,75,26.6,75.2,25.9,75.2 M70.7,76v5.5c0,0.3-0.2,0.7-0.6,0.8c-0.7,0.2-1.7,0.4-2.7,0.6c-1.1,0.2-2,0.2-2.8,0.2
	c-1.3,0-2.5-0.2-3.6-0.6c-1.1-0.4-2.1-1-2.9-1.8c-0.8-0.8-1.5-1.7-1.9-2.8c-0.4-1.1-0.7-2.3-0.7-3.6V37.6c0-0.4,0.2-0.7,0.6-0.8
	l7.1-1.9c0.1,0,0.1,0,0.2,0c0.2,0,0.3,0.1,0.5,0.2c0.2,0.2,0.3,0.4,0.3,0.6v36.5c0,2.1,1,3.1,3.2,3.1h2.5
	C70.3,75.2,70.7,75.6,70.7,76 M92.9,76v5.6c0,0.3-0.2,0.6-0.5,0.8c-0.6,0.2-1.3,0.4-1.9,0.5c-0.6,0.1-1.3,0.2-2,0.2
	c-1.3,0-2.5-0.2-3.7-0.5c-1.2-0.3-2.3-0.9-3.2-1.7c-0.9-0.8-1.6-1.8-2.2-3c-0.5-1.2-0.8-2.7-0.8-4.3V55.4h-2.9
	c-0.4,0-0.8-0.4-0.8-0.8v-5.8c0-0.4,0.4-0.8,0.8-0.8h2.9v-6.2c0-0.4,0.3-0.7,0.6-0.8l7.1-1.6c0.1,0,0.1,0,0.2,0
	c0.2,0,0.4,0.1,0.5,0.2c0.2,0.2,0.3,0.4,0.3,0.6V48h4.4c0.2,0,0.5,0.1,0.6,0.3c0.1,0.2,0.2,0.5,0.1,0.7l-1.8,5.8
	c-0.1,0.3-0.4,0.6-0.8,0.6h-2.6v16.7c0,2.1,1,3.1,3.2,3.1h1.6C92.5,75.2,92.9,75.6,92.9,76 M128.3,51.8c-1.4-1.4-3.1-2.6-5-3.4
	c-1.9-0.8-4.2-1.2-6.7-1.2c-2.2,0-4.2,0.3-6.2,1c-1.9,0.7-3.7,1.7-5.2,2.9c-1.5,1.3-2.7,2.8-3.6,4.6c-0.9,1.8-1.4,3.8-1.5,5.9
	c0,0.5-0.1,1-0.1,1.6v2.3c0,5.7,1.5,10.1,4.5,13c3,3,7.3,4.5,12.9,4.5c2.7,0,5.4-0.6,7.8-1.7c2.4-1.2,4.4-3,5.9-5.5
	c0.1-0.2,0.1-0.4,0.1-0.7c-0.1-0.2-0.2-0.4-0.5-0.5l-5.8-2.4c-0.1,0-0.2-0.1-0.3-0.1c-0.2,0-0.4,0.1-0.6,0.2c-1,0.9-1.9,1.6-2.7,2.1
	c-0.8,0.4-1.9,0.6-3.5,0.6c-1.8,0-3.3-0.2-4.4-0.6c-1.1-0.4-2-0.9-2.7-1.6c-0.7-0.7-1.1-1.5-1.4-2.4c-0.2-0.8-0.4-1.6-0.4-2.4h22.9
	c0.4,0,0.8-0.4,0.8-0.8v-3.7c0-2.4-0.4-4.7-1.1-6.7C130.8,55,129.7,53.2,128.3,51.8 M116.7,55.1c1.1,0,2.1,0.2,2.9,0.5
	c0.9,0.3,1.6,0.7,2.3,1.3c0.6,0.5,1.1,1.2,1.4,1.9c0.2,0.5,0.4,1.1,0.5,1.7h-15c0.1-0.7,0.3-1.4,0.6-2c0.4-0.8,1-1.4,1.7-1.9
	c0.7-0.5,1.6-0.9,2.5-1.1C114.6,55.2,115.7,55.1,116.7,55.1 M162.9,49.7l-2.5,6.5c-0.1,0.2-0.3,0.4-0.5,0.5c-0.1,0-0.2,0-0.3,0
	c-0.1,0-0.3,0-0.4-0.1c-1-0.6-1.9-0.9-2.8-0.9c-1.2,0-2.1,0.3-2.8,0.9c-0.8,0.7-1.4,1.5-1.8,2.6c-0.4,1.1-0.8,2.2-0.9,3.5
	c-0.2,1.3-0.3,2.4-0.3,3.4v15.3c0,0.4-0.4,0.8-0.8,0.8h-7.1c-0.4,0-0.8-0.4-0.8-0.8V56.8c0-1.1-0.1-2.1-0.2-3
	c-0.2-0.8-0.5-1.7-0.9-2.5c-0.1-0.2-0.1-0.4,0-0.6c0.1-0.2,0.2-0.4,0.4-0.5l6.4-2.9c0.1,0,0.2-0.1,0.3-0.1c0.3,0,0.6,0.2,0.7,0.4
	c0.3,0.6,0.7,1.3,1,2c0.1,0.3,0.2,0.6,0.3,0.9c0.7-0.9,1.5-1.6,2.3-2.2c1.2-0.8,2.7-1.2,4.5-1.2c1.8,0,3.7,0.5,5.7,1.5
	C162.9,48.9,163.1,49.3,162.9,49.7 M200.7,54.2c0.7,1.5,1,3.3,1,5.3v22c0,0.4-0.4,0.8-0.8,0.8h-7.1c-0.5,0-0.8-0.4-0.8-0.8V60.9
	c0-4-1.8-5.9-5.7-5.9c-0.6,0-1.3,0.1-2.1,0.2c-0.7,0.1-1.5,0.3-2.2,0.6c-0.7,0.2-1.3,0.6-2,0.9c-0.5,0.3-1,0.7-1.3,1v23.7
	c0,0.4-0.4,0.8-0.8,0.8h-7.1c-0.4,0-0.8-0.4-0.8-0.8V56.8c0-1.1-0.1-2.1-0.2-2.9c-0.2-0.8-0.5-1.7-0.9-2.6c-0.1-0.2-0.1-0.4,0-0.6
	c0.1-0.2,0.2-0.4,0.4-0.5l6.4-2.9c0.1,0,0.2-0.1,0.3-0.1c0.3,0,0.6,0.1,0.7,0.4c0.4,0.6,0.7,1.3,0.9,1.9c0.2,0.3,0.3,0.7,0.4,1.1
	c0.4-0.4,0.9-0.7,1.4-1c0.8-0.5,1.6-0.9,2.5-1.3c0.9-0.4,1.8-0.6,2.6-0.8c0.9-0.2,1.7-0.3,2.5-0.3c1.9,0,3.7,0.3,5.4,0.8
	c1.6,0.5,3.1,1.3,4.3,2.3C199,51.3,200,52.7,200.7,54.2 M242.7,77.7c-0.3-1-0.4-2.3-0.4-3.7V59.9c0-2-0.4-3.9-1.2-5.4
	c-0.8-1.6-1.9-2.9-3.3-4c-1.4-1.1-2.9-1.9-4.7-2.4c-1.7-0.5-3.6-0.8-5.5-0.8c-2.5,0-4.9,0.3-7,0.9c-2.1,0.6-4.2,1.5-6.4,2.7
	c-0.2,0.1-0.3,0.3-0.4,0.5c-0.1,0.2,0,0.4,0.1,0.6l3.1,5.3c0.1,0.2,0.4,0.4,0.7,0.4c0.1,0,0.3,0,0.4-0.1c1.6-0.8,3.1-1.5,4.5-1.9
	c1.4-0.4,3.1-0.6,5-0.6c2,0,3.5,0.5,4.5,1.4c1,0.9,1.5,2.4,1.5,4.5H223c-1.6,0-3.2,0.3-4.7,0.8c-1.5,0.5-2.7,1.3-3.8,2.2
	c-1.1,1-2,2.2-2.6,3.6c-0.6,1.4-0.9,3-0.9,4.7c0,1.6,0.3,3.1,1,4.5c0.7,1.3,1.6,2.5,2.7,3.4c1.1,0.9,2.4,1.7,3.9,2.2
	c1.4,0.5,3,0.8,4.5,0.8c2.3,0,4.5-0.5,6.5-1.4c1.5-0.7,3.1-1.6,4.6-2.6c0,0.3,0.1,0.5,0.2,0.8c0.2,0.8,0.5,1.6,0.9,2.1
	c0.1,0.2,0.4,0.3,0.6,0.3h7.5c0.3,0,0.5-0.1,0.7-0.4c0.2-0.2,0.2-0.5,0-0.8C243.4,79.9,243,78.7,242.7,77.7 M223.8,75.2
	c-1.3,0-2.4-0.2-3.2-0.6c-0.2-0.1-1-0.5-1-2.3c0-1.2,0.3-2,0.9-2.6c0.6-0.6,1.4-0.9,2.6-0.9h10.6v2.1c-0.6,0.3-1.3,0.7-2,1.2
	c-0.9,0.5-1.8,1-2.7,1.5c-0.9,0.5-1.8,0.8-2.8,1.2C225.3,75,224.5,75.2,223.8,75.2 M268.7,76v5.6c0,0.3-0.2,0.6-0.5,0.8
	c-0.6,0.2-1.3,0.4-1.9,0.5c-0.6,0.1-1.3,0.2-2,0.2c-1.3,0-2.5-0.2-3.7-0.5c-1.2-0.3-2.3-0.9-3.2-1.7c-0.9-0.8-1.6-1.8-2.2-3
	c-0.5-1.2-0.8-2.7-0.8-4.3V55.4h-2.9c-0.5,0-0.8-0.4-0.8-0.8v-5.8c0-0.4,0.4-0.8,0.8-0.8h2.9v-6.2c0-0.4,0.3-0.7,0.6-0.8l7.1-1.6
	c0.1,0,0.1,0,0.2,0c0.2,0,0.4,0.1,0.5,0.2c0.2,0.2,0.3,0.4,0.3,0.6V48h4.4c0.3,0,0.5,0.1,0.6,0.3c0.2,0.2,0.2,0.5,0.1,0.7l-1.8,5.8
	c-0.1,0.3-0.4,0.6-0.8,0.6H263v16.7c0,2.1,1,3.1,3.2,3.1h1.6C268.3,75.2,268.7,75.6,268.7,76 M285.9,48.8v32.7
	c0,0.4-0.4,0.8-0.8,0.8H278c-0.4,0-0.8-0.4-0.8-0.8V48.8c0-0.4,0.4-0.8,0.8-0.8h7.1C285.5,48,285.9,48.3,285.9,48.8 M284.6,36.1
	c1,1,1.4,2.1,1.4,3.3c0,1.4-0.5,2.5-1.4,3.3c-0.9,0.8-2,1.2-3.3,1.2c-1.3,0-2.4-0.4-3.3-1.3c-0.9-0.8-1.4-1.9-1.4-3.3
	c0-1.3,0.5-2.4,1.4-3.3c0.8-0.8,2-1.3,3.3-1.3C282.6,34.8,283.8,35.2,284.6,36.1 M325.7,49.4c0.1,0.2,0.1,0.4,0,0.7l-11.9,31.7
	c-0.1,0.3-0.4,0.5-0.8,0.5h-6.7c-0.3,0-0.6-0.2-0.7-0.5L293.7,50c-0.1-0.2-0.1-0.4,0-0.7c0.1-0.2,0.3-0.3,0.5-0.4l6.4-1.8
	c0.1,0,0.1,0,0.2,0c0.3,0,0.6,0.2,0.8,0.5l7.5,19.9c0,0,0,0.1,0,0.1l0.6,2.6l0.5-2.6c0,0,0-0.1,0-0.1l7.5-19.9
	c0.1-0.3,0.4-0.5,0.7-0.5c0.1,0,0.1,0,0.2,0l6.4,1.8C325.4,49.1,325.6,49.2,325.7,49.4 M361.5,51.8c-1.4-1.4-3.1-2.6-5-3.4
	c-1.9-0.8-4.2-1.2-6.7-1.2c-2.2,0-4.2,0.3-6.2,1c-1.9,0.7-3.7,1.7-5.2,2.9c-1.5,1.3-2.7,2.8-3.6,4.6c-0.9,1.8-1.4,3.8-1.5,5.9
	c-0.1,0.5-0.1,1-0.1,1.6v2.3c0,5.7,1.5,10.1,4.5,13c3,3,7.3,4.5,12.9,4.5c2.7,0,5.4-0.6,7.7-1.7c2.4-1.2,4.4-3,5.9-5.5
	c0.1-0.2,0.1-0.4,0.1-0.7c-0.1-0.2-0.2-0.4-0.5-0.5l-5.8-2.4c-0.1,0-0.2-0.1-0.3-0.1c-0.2,0-0.4,0.1-0.6,0.2c-1,0.9-1.9,1.6-2.7,2.1
	c-0.8,0.4-2,0.6-3.5,0.6c-1.8,0-3.3-0.2-4.4-0.6c-1.1-0.4-2-0.9-2.7-1.6c-0.7-0.7-1.1-1.5-1.4-2.4c-0.2-0.8-0.4-1.6-0.4-2.4h22.9
	c0.4,0,0.8-0.4,0.8-0.8v-3.7c0-2.4-0.3-4.7-1-6.7C363.9,55,362.8,53.2,361.5,51.8 M349.8,55.1c1.1,0,2.1,0.2,3,0.5
	c0.9,0.3,1.6,0.7,2.3,1.3c0.6,0.5,1.1,1.2,1.4,1.9c0.2,0.5,0.4,1.1,0.5,1.7h-15c0.1-0.7,0.3-1.4,0.6-2c0.4-0.8,1-1.4,1.8-1.9
	c0.7-0.5,1.6-0.9,2.5-1.1C347.8,55.2,348.8,55.1,349.8,55.1 M402.5,71.4c0,2.1-0.4,4-1.2,5.4c-0.8,1.5-1.9,2.7-3.3,3.7
	c-1.3,0.9-2.9,1.6-4.7,2c-1.7,0.4-3.5,0.6-5.3,0.6c-3,0-5.7-0.5-8.1-1.5c-2.5-1-4.5-3-6.1-5.8c-0.2-0.4-0.1-0.8,0.3-1.1l5.3-3.3
	c0.1-0.1,0.3-0.1,0.4-0.1c0.2,0,0.5,0.1,0.7,0.3c0.9,1.3,1.9,2.2,3,2.7c1.1,0.6,2.8,0.8,4.9,0.8c5.6,0,5.6-2.2,5.6-3
	c0-0.8-0.3-1.3-0.9-1.7c-0.8-0.5-1.7-0.9-2.8-1.3c-1.6-0.5-3.2-0.9-5-1.3c-1.8-0.4-3.6-1-5.1-1.7c-1.8-0.9-3.2-2.1-4.2-3.6
	c-1-1.5-1.5-3.4-1.5-5.6c0-1.6,0.4-3,1.1-4.3c0.7-1.2,1.7-2.3,3-3.1c1.2-0.8,2.7-1.4,4.5-1.8c1.7-0.4,3.6-0.6,5.6-0.6
	c2.3,0,4.5,0.4,6.5,1.3c2,0.9,3.7,2.1,5.2,3.7c0.3,0.3,0.3,0.8,0,1.1l-4.4,4.4c-0.1,0.1-0.4,0.2-0.6,0.2h0c-0.2,0-0.4-0.1-0.6-0.3
	c-0.8-0.8-1.6-1.4-2.5-1.9c-0.9-0.4-2.1-0.7-3.6-0.7c-1.7,0-3.1,0.2-4.2,0.6c-1.1,0.4-1.3,1-1.3,1.5c0,0.4,0.1,0.6,0.3,0.9
	c0.2,0.3,0.5,0.6,0.8,0.8c0.4,0.2,0.8,0.4,1.2,0.6c0.5,0.2,1,0.3,1.5,0.4c1.6,0.5,3.2,0.9,4.8,1.3c1.6,0.4,3.3,1,4.8,1.7
	c0.8,0.4,1.6,0.8,2.4,1.4c0.7,0.6,1.4,1.2,2,1.9c0.6,0.7,1.1,1.5,1.4,2.3C402.3,69.4,402.5,70.3,402.5,71.4"/>
</svg>
