<?xml version="1.0" encoding="UTF-8"?>
<!-- Generator: Adobe Illustrator 21.0.2, SVG Export Plug-In . SVG Version: 6.00 Build 0)  -->
<svg version="1.1" id="Layer_1" xmlns="http://www.w3.org/2000/svg" xmlns:xlink="http://www.w3.org/1999/xlink" x="0px" y="0px" viewBox="0 0 561.7 108" style="enable-background:new 0 0 561.7 108;" xml:space="preserve">
<style type="text/css">
	.st0{fill:#003E4F;}
	.st1{fill:#029CA0;}
	.st2{fill:#F74514;}
</style>
<g>
	<g>
		<path class="st0" d="M548.9,12.2c-8.8-3.6-17.4-6.4-27-7.2c1.9,2.8,3.6,5.5,5.2,8.2c-31,16.4-69.2,35-71.6,87.4    c-0.1,1.5,0.1,2.9,0.3,4.4c4.8-48.3,42-60.6,77.9-77.2c1.1,3.1,2,6.2,2.8,9.6C542.2,29.5,545.7,21.2,548.9,12.2z"/>
		<path class="st1" d="M515.4,48.3c-2-0.6-4-1.1-6.1-1.5c5.2-4.1,10.8-6.8,16.9-9.2c2.7,6,4.9,11.8,5.7,18.4    c-1.9-1.2-3.8-2.3-5.7-3.3c-1.7,3.9-3.9,7.4-6.3,10.7c-1.9-3.7-4.1-7.3-6.5-10.7C514.1,51.3,514.8,49.8,515.4,48.3z M463.9,82.1    c-0.1,0.3-0.2,0.5-0.3,0.8c17.2,5.5,35.7,0.5,48.9-11.5c-1.8-2.7-3.9-5.2-6.1-7.6C495.8,77.5,480.7,84.7,463.9,82.1z"/>
		<g>
			<path class="st2" d="M459.7,50.4c0.1-3.4,0.3-6.6,0.7-9.8c5.7,0.4,11.2,1.4,16.5,2.9c0.2-0.2,0.4-0.4,0.6-0.6     c3.5-3.5,7.3-6.8,11.3-9.7c-7.6-4.6-16-7.7-24.8-9c0.9-2.8,1.9-5.5,3.1-8.4c-9.2,2.9-17,7.5-24.8,12.9     C447.2,36.7,452.5,44.1,459.7,50.4z"/>
			<path class="st2" d="M503.3,44.5c-3.5,1.8-7,3.8-10.2,5.8c18.7,10.7,31.4,29.7,33.3,54.5c0.1-1.5,0.1-3,0.1-4.5     C526.4,78.6,517.4,58.6,503.3,44.5z"/>
		</g>
	</g>
	<path class="st0" d="M40.7,75c-0.3-1.1-0.5-2.4-0.5-4V55.6c0-2.2-0.5-4.2-1.4-5.9c-0.9-1.7-2.1-3.2-3.5-4.4   c-1.5-1.2-3.2-2.1-5.1-2.6c-1.9-0.5-3.9-0.9-5.9-0.9c-2.7,0-5.3,0.3-7.5,0.9s-4.6,1.6-7,3c-0.2,0.1-0.4,0.3-0.5,0.5   c-0.1,0.3,0,0.5,0.1,0.6l3.4,5.7c0.2,0.3,0.5,0.5,0.7,0.5c0.2,0,0.3,0,0.4-0.1c1.7-0.9,3.4-1.5,5-2c1.5-0.5,3.4-0.6,5.4-0.6   c2.2,0,3.8,0.5,4.9,1.5c1.1,0.9,1.5,2.6,1.5,4.9H19.3c-1.8,0-3.4,0.3-5.1,0.8c-1.5,0.5-3,1.4-4.2,2.4S7.9,62.4,7.2,64   c-0.6,1.5-1,3.2-1,5.1c0,1.8,0.4,3.4,1.1,4.9s1.7,2.7,2.9,3.7s2.6,1.8,4.2,2.4c1.5,0.5,3.3,0.8,4.9,0.8c2.5,0,4.9-0.5,7.1-1.5   c1.7-0.8,3.4-1.7,5-2.8c0.1,0.3,0.1,0.5,0.2,0.9c0.2,0.9,0.5,1.7,1,2.3c0.2,0.3,0.5,0.4,0.7,0.4h8.1c0.3,0,0.5-0.2,0.7-0.5   c0.2-0.3,0.2-0.5,0-0.8C41.5,77.5,41,76.2,40.7,75z M20.2,72.3c-1.5,0-2.5-0.3-3.4-0.7c-0.3-0.1-1.1-0.5-1.1-2.4   c0-1.3,0.3-2.3,0.9-2.9c0.6-0.6,1.5-0.9,2.8-0.9h11.4v2.3c-0.6,0.4-1.4,0.8-2.2,1.3c-0.9,0.5-1.9,1.1-2.9,1.6c-1,0.5-2,0.9-3,1.3   C21.8,72.1,21,72.3,20.2,72.3z M68.9,73.2v6c0,0.4-0.3,0.7-0.6,0.8c-0.8,0.3-1.8,0.5-3,0.6c-1.2,0.2-2.2,0.3-3,0.3   c-1.5,0-2.7-0.3-4-0.7c-1.2-0.5-2.3-1.1-3.2-2c-0.9-0.8-1.6-1.9-2.1-3.1c-0.5-1.2-0.7-2.4-0.7-3.9V31.4c0-0.4,0.3-0.7,0.6-0.8   l7.7-2.1c0.1,0,0.2,0,0.3,0c0.2,0,0.4,0.1,0.5,0.2c0.2,0.2,0.4,0.5,0.4,0.7V69c0,2.4,1.1,3.4,3.5,3.4h2.7   C68.5,72.3,68.9,72.8,68.9,73.2z M93.1,73.2v6.1c0,0.4-0.3,0.7-0.5,0.8c-0.7,0.3-1.4,0.5-2.1,0.6C89.7,80.9,89,81,88.2,81   c-1.4,0-2.7-0.2-4-0.5s-2.4-1-3.4-1.8c-1-0.8-1.8-1.9-2.4-3.3c-0.5-1.3-0.9-2.9-0.9-4.7V50.9h-3.2c-0.5,0-0.9-0.4-0.9-0.9v-6.3   c0-0.5,0.4-0.9,0.9-0.9h3.2V36c0-0.4,0.3-0.7,0.7-0.8l7.7-1.7c0.1,0,0.1,0,0.2,0c0.2,0,0.4,0.1,0.5,0.2c0.2,0.2,0.4,0.5,0.4,0.6   v8.4h4.8c0.3,0,0.5,0.1,0.7,0.4c0.2,0.2,0.2,0.5,0.1,0.7l-2,6.3c-0.1,0.4-0.5,0.6-0.8,0.6h-2.8V69c0,2.4,1.1,3.4,3.5,3.4h1.7   C92.6,72.3,93.1,72.8,93.1,73.2z M131.6,46.9c-1.5-1.5-3.4-2.8-5.4-3.6c-2.1-0.9-4.5-1.3-7.3-1.3c-2.4,0-4.6,0.4-6.7,1.1   c-2.1,0.7-4,1.8-5.6,3.2c-1.6,1.4-3,3.1-4,5s-1.5,4.1-1.6,6.4c-0.1,0.5-0.1,1.1-0.1,1.7V62c0,6.2,1.6,11,4.8,14.2   c3.2,3.2,7.9,4.8,14.1,4.8c3,0,5.8-0.6,8.4-1.9c2.6-1.3,4.8-3.3,6.3-6c0.1-0.2,0.2-0.5,0.1-0.7c-0.1-0.3-0.3-0.5-0.5-0.5l-6.3-2.6   c-0.1,0-0.2-0.1-0.4-0.1s-0.5,0.1-0.6,0.3c-1.1,1-2.1,1.8-3,2.3c-0.8,0.5-2.1,0.6-3.7,0.6c-1.9,0-3.5-0.2-4.8-0.6   c-1.3-0.5-2.2-1-2.9-1.7c-0.7-0.7-1.3-1.5-1.5-2.6c-0.3-0.8-0.4-1.7-0.5-2.6h24.9c0.5,0,0.9-0.4,0.9-0.9v-3.9   c0-2.6-0.4-5.1-1.2-7.3S133.1,48.5,131.6,46.9z M118.9,50.5c1.2,0,2.3,0.2,3.2,0.5c1,0.4,1.8,0.8,2.4,1.4c0.6,0.5,1.2,1.3,1.5,2.1   c0.3,0.5,0.5,1.2,0.5,1.9h-16.3c0.1-0.8,0.3-1.5,0.6-2.1c0.5-0.8,1.1-1.5,1.9-2.1c0.8-0.5,1.7-1,2.7-1.3   C116.7,50.6,117.8,50.5,118.9,50.5z M169.2,44.6l-2.7,7.1c-0.1,0.3-0.3,0.5-0.5,0.5c-0.1,0-0.2,0.1-0.3,0.1c-0.2,0-0.3,0-0.5-0.1   c-1-0.6-2.1-0.9-3-0.9c-1.3,0-2.3,0.4-3.1,1c-0.8,0.7-1.5,1.6-2,2.8c-0.5,1.2-0.8,2.4-1,3.8c-0.2,1.4-0.3,2.6-0.3,3.7v16.7   c0,0.5-0.4,0.9-0.9,0.9h-7.7c-0.5,0-0.9-0.4-0.9-0.9v-27c0-1.2-0.1-2.3-0.3-3.3c-0.2-0.9-0.5-1.8-1-2.7c-0.1-0.2-0.1-0.5-0.1-0.7   c0.1-0.2,0.3-0.4,0.5-0.5l6.9-3.2c0.1-0.1,0.3-0.1,0.4-0.1c0.3,0,0.6,0.2,0.8,0.5c0.4,0.7,0.7,1.5,1.1,2.2c0.2,0.4,0.3,0.6,0.4,1   c0.7-1,1.6-1.8,2.5-2.4c1.4-0.9,3-1.3,4.9-1.3c2,0,4.1,0.5,6.3,1.6C169.2,43.7,169.3,44.3,169.2,44.6z M210.2,49.5   c0.7,1.6,1.1,3.6,1.1,5.7v23.9c0,0.5-0.4,0.9-0.9,0.9h-7.7c-0.5,0-0.9-0.4-0.9-0.9V56.8c0-4.4-2-6.3-6.2-6.3   c-0.7,0-1.5,0.1-2.3,0.2c-0.8,0.2-1.5,0.4-2.4,0.6c-0.7,0.3-1.5,0.6-2.1,1c-0.5,0.4-1.1,0.7-1.5,1.1v25.8c0,0.5-0.4,0.9-0.9,0.9   h-7.7c-0.5,0-0.9-0.4-0.9-0.9V52.4c0-1.2-0.1-2.3-0.3-3.2c-0.2-0.9-0.5-1.8-1-2.9c-0.1-0.2-0.1-0.5,0-0.6c0.1-0.2,0.3-0.4,0.5-0.5   l6.9-3.2c0.1-0.1,0.3-0.1,0.4-0.1c0.3,0,0.6,0.2,0.7,0.5c0.4,0.7,0.7,1.4,1,2.1c0.2,0.4,0.4,0.8,0.5,1.3c0.5-0.4,1-0.8,1.5-1.2   c0.8-0.5,1.8-1,2.7-1.4c0.9-0.4,1.9-0.7,2.9-0.9c1-0.2,1.9-0.3,2.7-0.3c2.1,0,4.1,0.3,5.8,0.8c1.7,0.5,3.4,1.5,4.6,2.5   C208.3,46.5,209.4,47.8,210.2,49.5z M255.9,75c-0.3-1.1-0.5-2.4-0.5-4V55.6c0-2.2-0.5-4.2-1.4-5.9c-0.9-1.7-2.1-3.2-3.5-4.4   c-1.5-1.2-3.2-2.1-5.1-2.6c-1.9-0.5-3.9-0.9-5.9-0.9c-2.7,0-5.3,0.3-7.5,0.9c-2.3,0.6-4.6,1.6-7,3c-0.2,0.1-0.4,0.3-0.5,0.5   c-0.1,0.3,0,0.5,0.1,0.6l3.4,5.7c0.2,0.3,0.5,0.5,0.7,0.5c0.2,0,0.3,0,0.4-0.1c1.7-0.9,3.4-1.5,4.9-2c1.5-0.5,3.4-0.6,5.4-0.6   c2.2,0,3.8,0.5,4.9,1.5c1.1,0.9,1.5,2.6,1.5,4.9h-11.5c-1.8,0-3.4,0.3-5.1,0.8c-1.5,0.5-3,1.4-4.2,2.4s-2.2,2.4-2.8,3.9   c-0.6,1.5-1,3.2-1,5.1c0,1.8,0.4,3.4,1.1,4.9c0.7,1.5,1.7,2.7,2.9,3.7c1.2,1,2.6,1.8,4.2,2.4c1.5,0.5,3.3,0.8,4.9,0.8   c2.5,0,4.9-0.5,7.1-1.5c1.7-0.8,3.4-1.7,5-2.8c0.1,0.3,0.1,0.6,0.2,0.9c0.2,0.9,0.5,1.7,1,2.3c0.2,0.3,0.5,0.4,0.7,0.4h8.1   c0.3,0,0.5-0.2,0.7-0.5c0.2-0.3,0.2-0.5,0-0.8C256.7,77.5,256.2,76.2,255.9,75z M235.4,72.3c-1.4,0-2.6-0.3-3.4-0.7   c-0.3-0.1-1.1-0.5-1.1-2.4c0-1.3,0.3-2.3,0.9-2.9c0.6-0.6,1.5-0.9,2.8-0.9H246v2.3c-0.6,0.4-1.4,0.8-2.2,1.3   c-0.9,0.5-1.9,1.1-2.9,1.6c-1,0.5-2,0.9-3,1.3C236.9,72.1,236.1,72.3,235.4,72.3z M284.1,73.2v6.1c0,0.4-0.3,0.7-0.5,0.8   c-0.7,0.3-1.4,0.5-2.1,0.6S280,81,279.3,81c-1.4,0-2.7-0.2-4-0.5c-1.3-0.4-2.4-1-3.4-1.8s-1.8-1.9-2.4-3.3   c-0.6-1.3-0.9-2.9-0.9-4.7V50.9h-3.2c-0.5,0-0.9-0.4-0.9-0.9v-6.3c0-0.5,0.4-0.9,0.9-0.9h3.2V36c0-0.4,0.3-0.7,0.6-0.8l7.7-1.7   c0.1,0,0.1,0,0.2,0c0.2,0,0.4,0.1,0.5,0.2c0.2,0.2,0.4,0.5,0.4,0.6v8.4h4.8c0.3,0,0.5,0.1,0.7,0.4c0.2,0.2,0.2,0.5,0.1,0.7l-2,6.3   c-0.1,0.4-0.5,0.6-0.8,0.6H278V69c0,2.4,1.1,3.4,3.5,3.4h1.7C283.6,72.3,284.1,72.8,284.1,73.2z M302.8,43.6v35.6   c0,0.5-0.4,0.9-0.9,0.9h-7.7c-0.5,0-0.9-0.4-0.9-0.9V43.6c0-0.5,0.4-0.9,0.9-0.9h7.7C302.3,42.7,302.8,43.2,302.8,43.6z    M301.4,29.9c1,1,1.5,2.3,1.5,3.6c0,1.5-0.5,2.7-1.5,3.6c-0.9,0.9-2.2,1.4-3.5,1.4c-1.5,0-2.6-0.5-3.5-1.4c-1-0.9-1.5-2.1-1.5-3.5   c0-1.4,0.5-2.5,1.5-3.5c0.9-0.9,2.1-1.4,3.5-1.4C299.2,28.4,300.4,29,301.4,29.9z M346,44.3c0.1,0.2,0.1,0.5,0,0.7l-13,34.5   c-0.1,0.4-0.5,0.5-0.8,0.5H325c-0.4,0-0.7-0.2-0.8-0.5l-13-34.5c-0.1-0.3-0.1-0.5,0-0.7c0.1-0.2,0.3-0.4,0.5-0.5l7-1.9   c0.1,0,0.2,0,0.3,0c0.4,0,0.7,0.2,0.8,0.5l8.2,21.7v0.1l0.6,2.8l0.5-2.8c0,0,0-0.1,0-0.2l8.2-21.7c0.1-0.4,0.5-0.5,0.8-0.5   c0.1,0,0.2,0,0.3,0l7,1.9C345.8,43.9,346,44.1,346,44.3z M385,46.9c-1.5-1.5-3.4-2.8-5.4-3.6c-2.1-0.9-4.5-1.3-7.3-1.3   c-2.4,0-4.6,0.4-6.7,1.1s-4,1.8-5.6,3.2c-1.6,1.4-3,3.1-4,5s-1.5,4.1-1.6,6.4c-0.1,0.5-0.1,1.1-0.1,1.7V62c0,6.2,1.6,11,4.8,14.2   s7.9,4.8,14,4.8c3,0,5.8-0.6,8.4-1.9c2.6-1.3,4.8-3.3,6.3-6c0.1-0.2,0.2-0.5,0.1-0.7c-0.1-0.3-0.3-0.5-0.5-0.5l-6.3-2.6   c-0.1,0-0.3-0.1-0.4-0.1c-0.2,0-0.5,0.1-0.6,0.3c-1.1,1-2.1,1.8-3,2.3c-0.8,0.5-2.1,0.6-3.7,0.6c-1.9,0-3.5-0.2-4.8-0.6   c-1.3-0.5-2.3-1-3-1.7c-0.7-0.7-1.3-1.5-1.5-2.6c-0.3-0.8-0.4-1.7-0.5-2.6h24.9c0.5,0,0.9-0.4,0.9-0.9v-3.9c0-2.6-0.4-5.1-1.2-7.3   C387.5,50.4,386.4,48.5,385,46.9z M372.3,50.5c1.2,0,2.3,0.2,3.2,0.5c0.9,0.4,1.8,0.8,2.4,1.4c0.6,0.5,1.2,1.3,1.5,2.1   c0.3,0.5,0.5,1.2,0.5,1.9h-16.3c0.1-0.8,0.3-1.5,0.6-2.1c0.5-0.8,1.1-1.5,1.9-2.1c0.8-0.5,1.7-1,2.7-1.3   C370,50.6,371.1,50.5,372.3,50.5z M429.5,68.2c0,2.3-0.5,4.3-1.4,5.9s-2.1,3-3.6,4c-1.5,1-3.2,1.7-5.1,2.2   c-1.9,0.5-3.8,0.6-5.8,0.6c-3.3,0-6.3-0.5-8.8-1.6c-2.7-1.1-4.9-3.3-6.6-6.3c-0.2-0.4-0.1-0.9,0.3-1.2l5.7-3.6   c0.2-0.1,0.3-0.1,0.5-0.1c0.3,0,0.5,0.1,0.7,0.4c1,1.4,2.1,2.4,3.3,3c1.2,0.6,3,0.9,5.3,0.9c6.1,0,6.1-2.4,6.1-3.2   c0-0.8-0.4-1.5-1-1.9c-0.8-0.5-1.9-1-3.1-1.4c-1.7-0.5-3.5-1-5.4-1.4c-2-0.5-3.9-1.1-5.6-1.9c-2-1-3.5-2.3-4.5-3.9   c-1.1-1.6-1.6-3.6-1.6-6.1c0-1.7,0.4-3.4,1.2-4.6c0.8-1.4,1.9-2.4,3.3-3.4s3-1.5,4.9-2c1.8-0.5,3.9-0.6,6.1-0.6   c2.5,0,4.9,0.5,7,1.5c2.2,0.9,4.1,2.3,5.6,4c0.3,0.4,0.3,0.9,0,1.2l-4.8,4.7c-0.2,0.2-0.4,0.3-0.6,0.3l0,0c-0.3,0-0.5-0.1-0.6-0.3   c-0.8-0.8-1.7-1.5-2.7-2c-1-0.5-2.3-0.7-3.9-0.7c-1.8,0-3.4,0.3-4.6,0.7c-1.2,0.5-1.4,1.1-1.4,1.6c0,0.4,0.1,0.7,0.3,1   c0.3,0.4,0.5,0.6,0.9,0.8c0.4,0.3,0.8,0.5,1.4,0.6c0.5,0.2,1.1,0.4,1.6,0.5c1.7,0.5,3.4,1,5.2,1.5c1.8,0.5,3.5,1,5.3,1.8   c0.9,0.4,1.7,0.9,2.5,1.5c0.8,0.6,1.5,1.3,2.2,2.1c0.6,0.8,1.2,1.6,1.5,2.5C429.3,66,429.5,67.1,429.5,68.2z"/>
</g>
</svg>